<?xml version="1.0" encoding="utf-8" standalone="no"?>
<!DOCTYPE svg PUBLIC "-//W3C//DTD SVG 1.1//EN"
  "http://www.w3.org/Graphics/SVG/1.1/DTD/svg11.dtd">
<!-- Created with matplotlib (https://matplotlib.org/) -->
<svg height="288pt" version="1.1" viewBox="0 0 432 288" width="432pt" xmlns="http://www.w3.org/2000/svg" xmlns:xlink="http://www.w3.org/1999/xlink">
 <defs>
  <style type="text/css">
*{stroke-linecap:butt;stroke-linejoin:round;}
  </style>
 </defs>
 <g id="figure_1">
  <g id="patch_1">
   <path d="M 0 288 
L 432 288 
L 432 0 
L 0 0 
z
" style="fill:#ffffff;"/>
  </g>
  <g id="axes_1">
   <g id="patch_2">
    <path d="M 54 252 
L 388.8 252 
L 388.8 34.56 
L 54 34.56 
z
" style="fill:#ffffff;"/>
   </g>
   <g id="matplotlib.axis_1">
    <g id="xtick_1">
     <g id="line2d_1">
      <defs>
       <path d="M 0 0 
L 0 3.5 
" id="m893ec4aeed" style="stroke:#000000;stroke-width:0.8;"/>
      </defs>
      <g>
       <use style="stroke:#000000;stroke-width:0.8;" x="54" xlink:href="#m893ec4aeed" y="252"/>
      </g>
     </g>
     <g id="text_1">
      <!-- 0 -->
      <defs>
       <path d="M 31.78125 66.40625 
Q 24.171875 66.40625 20.328125 58.90625 
Q 16.5 51.421875 16.5 36.375 
Q 16.5 21.390625 20.328125 13.890625 
Q 24.171875 6.390625 31.78125 6.390625 
Q 39.453125 6.390625 43.28125 13.890625 
Q 47.125 21.390625 47.125 36.375 
Q 47.125 51.421875 43.28125 58.90625 
Q 39.453125 66.40625 31.78125 66.40625 
z
M 31.78125 74.21875 
Q 44.046875 74.21875 50.515625 64.515625 
Q 56.984375 54.828125 56.984375 36.375 
Q 56.984375 17.96875 50.515625 8.265625 
Q 44.046875 -1.421875 31.78125 -1.421875 
Q 19.53125 -1.421875 13.0625 8.265625 
Q 6.59375 17.96875 6.59375 36.375 
Q 6.59375 54.828125 13.0625 64.515625 
Q 19.53125 74.21875 31.78125 74.21875 
z
" id="DejaVuSans-48"/>
      </defs>
      <g transform="translate(50.81875 266.598437)scale(0.1 -0.1)">
       <use xlink:href="#DejaVuSans-48"/>
      </g>
     </g>
    </g>
    <g id="xtick_2">
     <g id="line2d_2">
      <g>
       <use style="stroke:#000000;stroke-width:0.8;" x="97.82199" xlink:href="#m893ec4aeed" y="252"/>
      </g>
     </g>
     <g id="text_2">
      <!-- 50 -->
      <defs>
       <path d="M 10.796875 72.90625 
L 49.515625 72.90625 
L 49.515625 64.59375 
L 19.828125 64.59375 
L 19.828125 46.734375 
Q 21.96875 47.46875 24.109375 47.828125 
Q 26.265625 48.1875 28.421875 48.1875 
Q 40.625 48.1875 47.75 41.5 
Q 54.890625 34.8125 54.890625 23.390625 
Q 54.890625 11.625 47.5625 5.09375 
Q 40.234375 -1.421875 26.90625 -1.421875 
Q 22.3125 -1.421875 17.546875 -0.640625 
Q 12.796875 0.140625 7.71875 1.703125 
L 7.71875 11.625 
Q 12.109375 9.234375 16.796875 8.0625 
Q 21.484375 6.890625 26.703125 6.890625 
Q 35.15625 6.890625 40.078125 11.328125 
Q 45.015625 15.765625 45.015625 23.390625 
Q 45.015625 31 40.078125 35.4375 
Q 35.15625 39.890625 26.703125 39.890625 
Q 22.75 39.890625 18.8125 39.015625 
Q 14.890625 38.140625 10.796875 36.28125 
z
" id="DejaVuSans-53"/>
      </defs>
      <g transform="translate(91.45949 266.598437)scale(0.1 -0.1)">
       <use xlink:href="#DejaVuSans-53"/>
       <use x="63.623047" xlink:href="#DejaVuSans-48"/>
      </g>
     </g>
    </g>
    <g id="xtick_3">
     <g id="line2d_3">
      <g>
       <use style="stroke:#000000;stroke-width:0.8;" x="141.643979" xlink:href="#m893ec4aeed" y="252"/>
      </g>
     </g>
     <g id="text_3">
      <!-- 100 -->
      <defs>
       <path d="M 12.40625 8.296875 
L 28.515625 8.296875 
L 28.515625 63.921875 
L 10.984375 60.40625 
L 10.984375 69.390625 
L 28.421875 72.90625 
L 38.28125 72.90625 
L 38.28125 8.296875 
L 54.390625 8.296875 
L 54.390625 0 
L 12.40625 0 
z
" id="DejaVuSans-49"/>
      </defs>
      <g transform="translate(132.100229 266.598437)scale(0.1 -0.1)">
       <use xlink:href="#DejaVuSans-49"/>
       <use x="63.623047" xlink:href="#DejaVuSans-48"/>
       <use x="127.246094" xlink:href="#DejaVuSans-48"/>
      </g>
     </g>
    </g>
    <g id="xtick_4">
     <g id="line2d_4">
      <g>
       <use style="stroke:#000000;stroke-width:0.8;" x="185.465969" xlink:href="#m893ec4aeed" y="252"/>
      </g>
     </g>
     <g id="text_4">
      <!-- 150 -->
      <g transform="translate(175.922219 266.598437)scale(0.1 -0.1)">
       <use xlink:href="#DejaVuSans-49"/>
       <use x="63.623047" xlink:href="#DejaVuSans-53"/>
       <use x="127.246094" xlink:href="#DejaVuSans-48"/>
      </g>
     </g>
    </g>
    <g id="xtick_5">
     <g id="line2d_5">
      <g>
       <use style="stroke:#000000;stroke-width:0.8;" x="229.287958" xlink:href="#m893ec4aeed" y="252"/>
      </g>
     </g>
     <g id="text_5">
      <!-- 200 -->
      <defs>
       <path d="M 19.1875 8.296875 
L 53.609375 8.296875 
L 53.609375 0 
L 7.328125 0 
L 7.328125 8.296875 
Q 12.9375 14.109375 22.625 23.890625 
Q 32.328125 33.6875 34.8125 36.53125 
Q 39.546875 41.84375 41.421875 45.53125 
Q 43.3125 49.21875 43.3125 52.78125 
Q 43.3125 58.59375 39.234375 62.25 
Q 35.15625 65.921875 28.609375 65.921875 
Q 23.96875 65.921875 18.8125 64.3125 
Q 13.671875 62.703125 7.8125 59.421875 
L 7.8125 69.390625 
Q 13.765625 71.78125 18.9375 73 
Q 24.125 74.21875 28.421875 74.21875 
Q 39.75 74.21875 46.484375 68.546875 
Q 53.21875 62.890625 53.21875 53.421875 
Q 53.21875 48.921875 51.53125 44.890625 
Q 49.859375 40.875 45.40625 35.40625 
Q 44.1875 33.984375 37.640625 27.21875 
Q 31.109375 20.453125 19.1875 8.296875 
z
" id="DejaVuSans-50"/>
      </defs>
      <g transform="translate(219.744208 266.598437)scale(0.1 -0.1)">
       <use xlink:href="#DejaVuSans-50"/>
       <use x="63.623047" xlink:href="#DejaVuSans-48"/>
       <use x="127.246094" xlink:href="#DejaVuSans-48"/>
      </g>
     </g>
    </g>
    <g id="xtick_6">
     <g id="line2d_6">
      <g>
       <use style="stroke:#000000;stroke-width:0.8;" x="273.109948" xlink:href="#m893ec4aeed" y="252"/>
      </g>
     </g>
     <g id="text_6">
      <!-- 250 -->
      <g transform="translate(263.566198 266.598437)scale(0.1 -0.1)">
       <use xlink:href="#DejaVuSans-50"/>
       <use x="63.623047" xlink:href="#DejaVuSans-53"/>
       <use x="127.246094" xlink:href="#DejaVuSans-48"/>
      </g>
     </g>
    </g>
    <g id="xtick_7">
     <g id="line2d_7">
      <g>
       <use style="stroke:#000000;stroke-width:0.8;" x="316.931937" xlink:href="#m893ec4aeed" y="252"/>
      </g>
     </g>
     <g id="text_7">
      <!-- 300 -->
      <defs>
       <path d="M 40.578125 39.3125 
Q 47.65625 37.796875 51.625 33 
Q 55.609375 28.21875 55.609375 21.1875 
Q 55.609375 10.40625 48.1875 4.484375 
Q 40.765625 -1.421875 27.09375 -1.421875 
Q 22.515625 -1.421875 17.65625 -0.515625 
Q 12.796875 0.390625 7.625 2.203125 
L 7.625 11.71875 
Q 11.71875 9.328125 16.59375 8.109375 
Q 21.484375 6.890625 26.8125 6.890625 
Q 36.078125 6.890625 40.9375 10.546875 
Q 45.796875 14.203125 45.796875 21.1875 
Q 45.796875 27.640625 41.28125 31.265625 
Q 36.765625 34.90625 28.71875 34.90625 
L 20.21875 34.90625 
L 20.21875 43.015625 
L 29.109375 43.015625 
Q 36.375 43.015625 40.234375 45.921875 
Q 44.09375 48.828125 44.09375 54.296875 
Q 44.09375 59.90625 40.109375 62.90625 
Q 36.140625 65.921875 28.71875 65.921875 
Q 24.65625 65.921875 20.015625 65.03125 
Q 15.375 64.15625 9.8125 62.3125 
L 9.8125 71.09375 
Q 15.4375 72.65625 20.34375 73.4375 
Q 25.25 74.21875 29.59375 74.21875 
Q 40.828125 74.21875 47.359375 69.109375 
Q 53.90625 64.015625 53.90625 55.328125 
Q 53.90625 49.265625 50.4375 45.09375 
Q 46.96875 40.921875 40.578125 39.3125 
z
" id="DejaVuSans-51"/>
      </defs>
      <g transform="translate(307.388187 266.598437)scale(0.1 -0.1)">
       <use xlink:href="#DejaVuSans-51"/>
       <use x="63.623047" xlink:href="#DejaVuSans-48"/>
       <use x="127.246094" xlink:href="#DejaVuSans-48"/>
      </g>
     </g>
    </g>
    <g id="xtick_8">
     <g id="line2d_8">
      <g>
       <use style="stroke:#000000;stroke-width:0.8;" x="360.753927" xlink:href="#m893ec4aeed" y="252"/>
      </g>
     </g>
     <g id="text_8">
      <!-- 350 -->
      <g transform="translate(351.210177 266.598437)scale(0.1 -0.1)">
       <use xlink:href="#DejaVuSans-51"/>
       <use x="63.623047" xlink:href="#DejaVuSans-53"/>
       <use x="127.246094" xlink:href="#DejaVuSans-48"/>
      </g>
     </g>
    </g>
   </g>
   <g id="matplotlib.axis_2">
    <g id="ytick_1">
     <g id="line2d_9">
      <defs>
       <path d="M 0 0 
L -3.5 0 
" id="m0f6763fa45" style="stroke:#000000;stroke-width:0.8;"/>
      </defs>
      <g>
       <use style="stroke:#000000;stroke-width:0.8;" x="54" xlink:href="#m0f6763fa45" y="234.40243"/>
      </g>
     </g>
     <g id="text_9">
      <!-- 5 -->
      <g transform="translate(40.6375 238.201649)scale(0.1 -0.1)">
       <use xlink:href="#DejaVuSans-53"/>
      </g>
     </g>
    </g>
    <g id="ytick_2">
     <g id="line2d_10">
      <g>
       <use style="stroke:#000000;stroke-width:0.8;" x="54" xlink:href="#m0f6763fa45" y="202.562203"/>
      </g>
     </g>
     <g id="text_10">
      <!-- 10 -->
      <g transform="translate(34.275 206.361422)scale(0.1 -0.1)">
       <use xlink:href="#DejaVuSans-49"/>
       <use x="63.623047" xlink:href="#DejaVuSans-48"/>
      </g>
     </g>
    </g>
    <g id="ytick_3">
     <g id="line2d_11">
      <g>
       <use style="stroke:#000000;stroke-width:0.8;" x="54" xlink:href="#m0f6763fa45" y="170.721977"/>
      </g>
     </g>
     <g id="text_11">
      <!-- 15 -->
      <g transform="translate(34.275 174.521195)scale(0.1 -0.1)">
       <use xlink:href="#DejaVuSans-49"/>
       <use x="63.623047" xlink:href="#DejaVuSans-53"/>
      </g>
     </g>
    </g>
    <g id="ytick_4">
     <g id="line2d_12">
      <g>
       <use style="stroke:#000000;stroke-width:0.8;" x="54" xlink:href="#m0f6763fa45" y="138.88175"/>
      </g>
     </g>
     <g id="text_12">
      <!-- 20 -->
      <g transform="translate(34.275 142.680968)scale(0.1 -0.1)">
       <use xlink:href="#DejaVuSans-50"/>
       <use x="63.623047" xlink:href="#DejaVuSans-48"/>
      </g>
     </g>
    </g>
    <g id="ytick_5">
     <g id="line2d_13">
      <g>
       <use style="stroke:#000000;stroke-width:0.8;" x="54" xlink:href="#m0f6763fa45" y="107.041523"/>
      </g>
     </g>
     <g id="text_13">
      <!-- 25 -->
      <g transform="translate(34.275 110.840741)scale(0.1 -0.1)">
       <use xlink:href="#DejaVuSans-50"/>
       <use x="63.623047" xlink:href="#DejaVuSans-53"/>
      </g>
     </g>
    </g>
    <g id="ytick_6">
     <g id="line2d_14">
      <g>
       <use style="stroke:#000000;stroke-width:0.8;" x="54" xlink:href="#m0f6763fa45" y="75.201296"/>
      </g>
     </g>
     <g id="text_14">
      <!-- 30 -->
      <g transform="translate(34.275 79.000514)scale(0.1 -0.1)">
       <use xlink:href="#DejaVuSans-51"/>
       <use x="63.623047" xlink:href="#DejaVuSans-48"/>
      </g>
     </g>
    </g>
    <g id="ytick_7">
     <g id="line2d_15">
      <g>
       <use style="stroke:#000000;stroke-width:0.8;" x="54" xlink:href="#m0f6763fa45" y="43.361069"/>
      </g>
     </g>
     <g id="text_15">
      <!-- 35 -->
      <g transform="translate(34.275 47.160287)scale(0.1 -0.1)">
       <use xlink:href="#DejaVuSans-51"/>
       <use x="63.623047" xlink:href="#DejaVuSans-53"/>
      </g>
     </g>
    </g>
   </g>
   <g id="line2d_16">
    <path clip-path="url(#p54b8ceba6f)" d="M 54 238.860062 
L 54.87644 237.013329 
L 55.75288 237.650134 
L 56.629319 236.440205 
L 57.505759 233.065141 
L 58.382199 233.829306 
L 59.258639 233.256182 
L 60.135079 232.492017 
L 61.011518 230.581603 
L 61.887958 231.027366 
L 62.764398 232.237295 
L 63.640838 231.218408 
L 64.517277 230.963686 
L 65.393717 230.263201 
L 66.270157 229.307994 
L 67.146597 230.517923 
L 68.023037 228.989592 
L 68.899476 226.569735 
L 69.775916 229.753757 
L 70.652356 229.435355 
L 71.528796 229.371675 
L 72.405236 230.454242 
L 73.281675 232.492017 
L 74.158115 232.364656 
L 75.034555 234.211389 
L 75.910995 236.822288 
L 76.787435 237.586453 
L 77.663874 228.161746 
L 78.540314 225.232445 
L 79.416754 230.008479 
L 80.293194 227.397581 
L 81.169634 226.760776 
L 82.046073 227.015498 
L 82.922513 226.633415 
L 84.675393 221.793701 
L 85.551832 219.755926 
L 86.428272 222.876268 
L 87.304712 221.984742 
L 88.181152 223.385712 
L 89.057592 220.774813 
L 89.934031 221.475298 
L 90.810471 221.602659 
L 91.686911 221.475298 
L 92.563351 219.119122 
L 93.439791 218.609678 
L 94.31623 221.411618 
L 95.19267 221.538979 
L 96.06911 221.411618 
L 96.94555 223.385712 
L 97.82199 224.022516 
L 98.698429 223.640434 
L 99.574869 221.538979 
L 100.451309 223.194671 
L 101.327749 223.449392 
L 102.204188 224.086197 
L 103.080628 224.977723 
L 103.957068 226.888137 
L 104.833508 230.645284 
L 105.709948 230.07216 
L 106.586387 228.352787 
L 107.462827 230.645284 
L 108.339267 229.976639 
L 109.215707 232.109934 
L 110.092147 229.562716 
L 110.968586 228.862231 
L 111.845026 229.626396 
L 112.721466 230.07216 
L 113.597906 229.881118 
L 115.350785 234.084028 
L 116.227225 235.071075 
L 117.103665 234.529791 
L 117.980105 235.867081 
L 118.856545 234.593472 
L 119.732984 234.975555 
L 120.609424 234.784513 
L 121.485864 235.039235 
L 122.362304 234.975555 
L 123.238743 235.73972 
L 124.991623 233.065141 
L 125.868063 236.249164 
L 126.744503 235.102915 
L 127.620942 235.102915 
L 128.497382 236.885968 
L 129.373822 238.032216 
L 130.250262 237.904855 
L 131.126702 238.095897 
L 132.003141 237.777495 
L 132.879581 238.159577 
L 133.756021 240.133671 
L 134.632461 240.579434 
L 135.508901 241.470961 
L 136.38534 238.47798 
L 137.26178 239.305825 
L 138.13822 238.095897 
L 139.01466 238.223258 
L 139.891099 239.433186 
L 140.767539 236.822288 
L 141.643979 237.331731 
L 142.520419 234.784513 
L 143.396859 235.357637 
L 144.273298 234.657152 
L 145.149738 234.466111 
L 146.026178 234.848194 
L 146.902618 236.694927 
L 147.779058 237.522773 
L 148.655497 236.758607 
L 149.531937 237.331731 
L 150.408377 238.669021 
L 151.284817 237.586453 
L 152.161257 236.949649 
L 153.037696 234.784513 
L 153.914136 235.102915 
L 154.790576 234.911874 
L 155.667016 235.230276 
L 156.543455 236.058122 
L 157.419895 236.312844 
L 158.296335 237.522773 
L 159.172775 239.114784 
L 160.049215 238.223258 
L 160.925654 239.560547 
L 161.802094 239.815269 
L 162.678534 239.242145 
L 163.554974 237.331731 
L 164.431414 234.975555 
L 166.184293 231.918893 
L 167.060733 233.447224 
L 167.937173 230.326881 
L 168.813613 229.244314 
L 169.690052 230.836325 
L 170.566492 231.664171 
L 171.442932 231.60049 
L 172.319372 231.855212 
L 173.195812 230.963686 
L 174.072251 231.53681 
L 174.948691 232.555697 
L 175.825131 234.911874 
L 176.701571 233.892987 
L 177.57801 233.065141 
L 178.45445 232.492017 
L 179.33089 232.364656 
L 180.20733 230.772645 
L 181.08377 231.727851 
L 181.960209 231.855212 
L 182.836649 229.435355 
L 183.713089 230.19952 
L 184.589529 228.862231 
L 185.465969 230.07216 
L 186.342408 230.07216 
L 187.218848 229.944799 
L 188.095288 229.307994 
L 188.971728 229.562716 
L 189.848168 230.07216 
L 190.724607 231.027366 
L 191.601047 232.810419 
L 192.477487 233.192502 
L 193.353927 234.40243 
L 194.230366 236.058122 
L 195.106806 236.694927 
L 195.983246 234.466111 
L 198.612565 236.121803 
L 199.489005 234.911874 
L 200.365445 235.930761 
L 201.241885 233.892987 
L 202.118325 232.746739 
L 202.994764 232.173615 
L 203.871204 230.390562 
L 204.747644 230.390562 
L 205.624084 230.07216 
L 206.500524 229.180633 
L 207.376963 227.079178 
L 208.253403 223.704114 
L 209.129843 222.812588 
L 210.006283 224.659321 
L 210.882723 224.277238 
L 211.759162 224.786682 
L 212.635602 223.831475 
L 213.512042 223.449392 
L 215.264921 221.029535 
L 217.017801 220.201689 
L 217.894241 221.66634 
L 218.770681 221.66634 
L 219.64712 219.755926 
L 220.52356 219.628565 
L 221.4 218.609678 
L 222.27644 218.8644 
L 223.15288 217.017667 
L 224.029319 217.845512 
L 224.905759 217.336069 
L 226.658639 217.52711 
L 227.535079 218.100234 
L 228.411518 220.201689 
L 229.287958 219.310163 
L 230.164398 216.699264 
L 231.040838 214.916212 
L 231.917277 214.72517 
L 232.793717 209.758095 
L 233.670157 208.484486 
L 234.546597 208.293444 
L 235.423037 210.331219 
L 236.299476 210.840663 
L 237.175916 212.878437 
L 238.052356 213.451561 
L 238.928796 212.368993 
L 239.805236 209.949136 
L 240.681675 208.930249 
L 241.558115 206.637753 
L 242.434555 206.510392 
L 243.310995 208.611847 
L 244.187435 204.663658 
L 245.063874 207.65664 
L 245.940314 207.784001 
L 246.816754 206.510392 
L 247.693194 207.72032 
L 248.569634 208.739208 
L 249.446073 210.776982 
L 250.322513 210.203858 
L 251.198953 208.420805 
L 252.075393 207.465598 
L 252.951832 207.274557 
L 253.828272 206.701433 
L 254.704712 204.536298 
L 255.581152 205.618865 
L 256.457592 203.581091 
L 257.334031 201.033873 
L 258.210471 202.371162 
L 259.086911 201.606997 
L 259.963351 203.835813 
L 260.839791 203.007967 
L 261.71623 205.173102 
L 263.46911 204.281576 
L 264.34555 206.064628 
L 265.22199 207.147196 
L 266.098429 204.154215 
L 267.851309 203.135328 
L 268.727749 199.823944 
L 269.604188 201.224914 
L 270.480628 202.307482 
L 271.357068 183.585428 
L 272.233508 183.90383 
L 273.109948 178.17259 
L 273.986387 178.682033 
L 274.862827 175.752732 
L 275.739267 177.535785 
L 276.615707 179.891962 
L 277.492147 176.962661 
L 278.368586 179.064116 
L 279.245026 176.962661 
L 280.121466 173.396556 
L 280.997906 171.868225 
L 281.874346 172.950792 
L 282.750785 175.115928 
L 283.627225 171.486142 
L 284.503665 169.321007 
L 285.380105 172.759751 
L 286.256545 168.42948 
L 288.009424 162.507198 
L 288.885864 165.818582 
L 289.762304 169.639409 
L 290.638743 166.200664 
L 291.515183 164.544972 
L 292.391623 164.863375 
L 293.268063 166.391706 
L 294.144503 162.061435 
L 295.020942 163.144003 
L 295.897382 157.540123 
L 296.773822 157.476442 
L 297.650262 154.738183 
L 298.526702 155.884431 
L 299.403141 153.209852 
L 300.279581 146.523404 
L 301.156021 147.605972 
L 302.032461 149.070622 
L 302.908901 153.910337 
L 303.78534 154.865543 
L 304.66178 162.507198 
L 305.53822 159.323175 
L 306.41466 152.127284 
L 307.291099 150.15319 
L 308.167539 149.707427 
L 309.043979 148.051735 
L 309.920419 145.440836 
L 310.796859 141.174246 
L 311.673298 139.072791 
L 312.549738 136.20717 
L 313.426178 139.582235 
L 314.302618 142.193133 
L 315.179058 140.983205 
L 316.055497 141.046885 
L 316.931937 136.652934 
L 317.808377 137.671821 
L 318.684817 134.67884 
L 319.561257 133.723633 
L 320.437696 130.858012 
L 321.314136 141.110565 
L 322.190576 138.754389 
L 323.067016 140.155359 
L 323.943455 133.787313 
L 325.696335 128.374475 
L 326.572775 86.98218 
L 327.449215 74.564491 
L 328.325654 80.805176 
L 329.202094 91.439811 
L 330.078534 83.352394 
L 330.954974 70.20238 
L 331.831414 65.139784 
L 332.707853 63.420412 
L 333.584293 69.470055 
L 334.460733 61.382637 
L 335.337173 73.800326 
L 336.213613 76.602266 
L 337.090052 62.274163 
L 337.966492 53.549941 
L 338.842932 50.493279 
L 339.719372 44.443636 
L 340.595812 51.321125 
L 341.472251 53.549941 
L 342.348691 45.780926 
L 343.225131 55.778757 
L 344.101571 54.377787 
L 344.97801 67.878043 
L 345.85445 77.302751 
L 346.73089 89.8478 
L 347.60733 88.828913 
L 348.48377 105.194789 
L 349.360209 104.494304 
L 350.236649 114.683177 
L 351.113089 117.994561 
L 351.989529 108.824575 
L 352.865969 124.87205 
L 353.742408 125.636215 
L 354.618848 118.121922 
L 355.495288 106.595759 
L 356.371728 105.767914 
L 357.248168 93.541266 
L 358.124607 91.31245 
L 359.001047 92.840781 
L 359.877487 106.914162 
L 360.753927 106.65944 
L 361.630366 118.567685 
L 362.506806 124.489967 
L 363.383246 124.681008 
L 364.259686 127.992392 
L 365.136126 126.782463 
L 366.012565 123.47108 
L 366.889005 116.911993 
L 367.765445 115.001579 
L 368.641885 111.817557 
L 369.518325 112.008598 
L 370.394764 110.034504 
L 371.271204 111.626515 
L 372.147644 108.633534 
L 373.024084 112.518042 
L 373.900524 112.327 
L 374.776963 106.404718 
L 375.653403 108.633534 
L 376.529843 101.373962 
L 377.406283 115.256301 
L 378.282723 117.230395 
L 379.159162 118.440324 
L 380.035602 109.907143 
L 380.912042 104.239583 
L 381.788482 105.767914 
L 382.664921 146.778126 
L 383.541361 142.511535 
L 384.417801 146.332363 
L 385.294241 151.936243 
L 386.170681 147.860694 
L 387.04712 150.344231 
L 387.92356 151.61784 
L 388.8 148.8159 
L 388.8 148.8159 
" style="fill:none;stroke:#1f77b4;stroke-linecap:square;stroke-width:1.5;"/>
   </g>
   <g id="line2d_17">
    <path clip-path="url(#p54b8ceba6f)" d="M 54 237.612177 
L 94.31623 238.152736 
L 388.8 242.116364 
L 388.8 242.116364 
" style="fill:none;stroke:#ff7f0e;stroke-linecap:square;stroke-width:1.5;"/>
   </g>
   <g id="patch_3">
    <path d="M 54 252 
L 54 34.56 
" style="fill:none;stroke:#000000;stroke-linecap:square;stroke-linejoin:miter;stroke-width:0.8;"/>
   </g>
   <g id="patch_4">
    <path d="M 388.8 252 
L 388.8 34.56 
" style="fill:none;stroke:#000000;stroke-linecap:square;stroke-linejoin:miter;stroke-width:0.8;"/>
   </g>
   <g id="patch_5">
    <path d="M 54 252 
L 388.8 252 
" style="fill:none;stroke:#000000;stroke-linecap:square;stroke-linejoin:miter;stroke-width:0.8;"/>
   </g>
   <g id="patch_6">
    <path d="M 54 34.56 
L 388.8 34.56 
" style="fill:none;stroke:#000000;stroke-linecap:square;stroke-linejoin:miter;stroke-width:0.8;"/>
   </g>
   <g id="legend_1">
    <g id="patch_7">
     <path d="M 61 71.91625 
L 99.3625 71.91625 
Q 101.3625 71.91625 101.3625 69.91625 
L 101.3625 41.56 
Q 101.3625 39.56 99.3625 39.56 
L 61 39.56 
Q 59 39.56 59 41.56 
L 59 69.91625 
Q 59 71.91625 61 71.91625 
z
" style="fill:#ffffff;opacity:0.8;stroke:#cccccc;stroke-linejoin:miter;"/>
    </g>
    <g id="line2d_18">
     <path d="M 63 47.658437 
L 83 47.658437 
" style="fill:none;stroke:#1f77b4;stroke-linecap:square;stroke-width:1.5;"/>
    </g>
    <g id="line2d_19"/>
    <g id="text_16">
     <!-- 0 -->
     <g transform="translate(91 51.158437)scale(0.1 -0.1)">
      <use xlink:href="#DejaVuSans-48"/>
     </g>
    </g>
    <g id="line2d_20">
     <path d="M 63 62.336562 
L 83 62.336562 
" style="fill:none;stroke:#ff7f0e;stroke-linecap:square;stroke-width:1.5;"/>
    </g>
    <g id="line2d_21"/>
    <g id="text_17">
     <!-- 1 -->
     <g transform="translate(91 65.836562)scale(0.1 -0.1)">
      <use xlink:href="#DejaVuSans-49"/>
     </g>
    </g>
   </g>
  </g>
 </g>
 <defs>
  <clipPath id="p54b8ceba6f">
   <rect height="217.44" width="334.8" x="54" y="34.56"/>
  </clipPath>
 </defs>
</svg>
